<svg width="13" height="20" viewBox="0 0 13 20" fill="none" xmlns="http://www.w3.org/2000/svg">
<path d="M12.57 11.19C12.3 10.68 11.94 10.26 11.5 9.93C11.06 9.6 10.55 9.33 9.99 9.14C9.43 8.94 8.85 8.78 8.27 8.64C7.67 8.5 7.08 8.38 6.52 8.26C5.95 8.13 5.45 7.99 5.01 7.82C4.57 7.65 4.21 7.44 3.94 7.19C3.67 6.94 3.53 6.6 3.53 6.19C3.53 5.86 3.62 5.59 3.81 5.38C4 5.17 4.23 5.02 4.5 4.91C4.77 4.8 5.07 4.73 5.38 4.69C5.69 4.65 5.96 4.63 6.18 4.63C6.89 4.63 7.53 4.77 8.08 5.04C8.63 5.31 8.99 5.85 9.14 6.66H12.5C12.41 5.82 12.18 5.1 11.81 4.5C11.44 3.9 10.98 3.42 10.43 3.05C9.87 2.68 9.25 2.41 8.57 2.24C8.38 2.19 8.19 2.17 8 2.14V1C8 0.45 7.55 0 7 0H6C5.45 0 5 0.45 5 1V2.1C4.78 2.13 4.57 2.15 4.34 2.2C3.61 2.33 2.95 2.57 2.36 2.91C1.76 3.25 1.27 3.71 0.89 4.26C0.5 4.82 0.31 5.51 0.31 6.34C0.31 7.1 0.44 7.75 0.71 8.27C0.97 8.79 1.33 9.22 1.77 9.55C2.21 9.88 2.71 10.15 3.27 10.34C3.82 10.54 4.4 10.7 5.01 10.84C5.59 10.98 6.17 11.1 6.73 11.22C7.29 11.34 7.8 11.48 8.24 11.65C8.68 11.82 9.04 12.04 9.33 12.31C9.61 12.58 9.76 12.94 9.78 13.37C9.8 13.8 9.7 14.15 9.48 14.41C9.26 14.67 8.99 14.88 8.65 15.01C8.31 15.15 7.95 15.24 7.56 15.29C7.17 15.34 6.83 15.36 6.53 15.36C5.66 15.36 4.92 15.16 4.3 14.77C3.68 14.38 3.32 13.69 3.23 12.71H0C0.02 13.61 0.19 14.39 0.52 15.05C0.85 15.71 1.3 16.26 1.87 16.7C2.44 17.14 3.12 17.47 3.9 17.68C4.25 17.78 4.61 17.84 4.98 17.89V19C4.98 19.55 5.43 20 5.98 20H6.98C7.53 20 7.98 19.55 7.98 19V17.87C8.23 17.83 8.48 17.8 8.74 17.74C9.51 17.56 10.21 17.28 10.84 16.89C11.47 16.5 11.98 15.99 12.38 15.36C12.78 14.73 12.97 13.97 12.97 13.07C12.98 12.32 12.84 11.7 12.57 11.19Z" fill="black"/>
<mask id="mask0" mask-type="alpha" maskUnits="userSpaceOnUse" x="0" y="0" width="13" height="20">
<path d="M12.57 11.19C12.3 10.68 11.94 10.26 11.5 9.93C11.06 9.6 10.55 9.33 9.99 9.14C9.43 8.94 8.85 8.78 8.27 8.64C7.67 8.5 7.08 8.38 6.52 8.26C5.95 8.13 5.45 7.99 5.01 7.82C4.57 7.65 4.21 7.44 3.94 7.19C3.67 6.94 3.53 6.6 3.53 6.19C3.53 5.86 3.62 5.59 3.81 5.38C4 5.17 4.23 5.02 4.5 4.91C4.77 4.8 5.07 4.73 5.38 4.69C5.69 4.65 5.96 4.63 6.18 4.63C6.89 4.63 7.53 4.77 8.08 5.04C8.63 5.31 8.99 5.85 9.14 6.66H12.5C12.41 5.82 12.18 5.1 11.81 4.5C11.44 3.9 10.98 3.42 10.43 3.05C9.87 2.68 9.25 2.41 8.57 2.24C8.38 2.19 8.19 2.17 8 2.14V1C8 0.45 7.55 0 7 0H6C5.45 0 5 0.45 5 1V2.1C4.78 2.13 4.57 2.15 4.34 2.2C3.61 2.33 2.95 2.57 2.36 2.91C1.76 3.25 1.27 3.71 0.89 4.26C0.5 4.82 0.31 5.51 0.31 6.34C0.31 7.1 0.44 7.75 0.71 8.27C0.97 8.79 1.33 9.22 1.77 9.55C2.21 9.88 2.71 10.15 3.27 10.34C3.82 10.54 4.4 10.7 5.01 10.84C5.59 10.98 6.17 11.1 6.73 11.22C7.29 11.34 7.8 11.48 8.24 11.65C8.68 11.82 9.04 12.04 9.33 12.31C9.61 12.58 9.76 12.94 9.78 13.37C9.8 13.8 9.7 14.15 9.48 14.41C9.26 14.67 8.99 14.88 8.65 15.01C8.31 15.15 7.95 15.24 7.56 15.29C7.17 15.34 6.83 15.36 6.53 15.36C5.66 15.36 4.92 15.16 4.3 14.77C3.68 14.38 3.32 13.69 3.23 12.71H0C0.02 13.61 0.19 14.39 0.52 15.05C0.85 15.71 1.3 16.26 1.87 16.7C2.44 17.14 3.12 17.47 3.9 17.68C4.25 17.78 4.61 17.84 4.98 17.89V19C4.98 19.55 5.43 20 5.98 20H6.98C7.53 20 7.98 19.55 7.98 19V17.87C8.23 17.83 8.48 17.8 8.74 17.74C9.51 17.56 10.21 17.28 10.84 16.89C11.47 16.5 11.98 15.99 12.38 15.36C12.78 14.73 12.97 13.97 12.97 13.07C12.98 12.32 12.84 11.7 12.57 11.19Z" fill="white"/>
</mask>
<g mask="url(#mask0)">
<rect x="-6" y="-2" width="24" height="24" fill="#1665D8"/>
</g>
</svg>
