<svg width="184" height="94" viewBox="0 0 184 94" fill="none" xmlns="http://www.w3.org/2000/svg">
<path d="M42.9288 9.03834C42.8626 8.51659 42.7288 8.00562 42.5306 7.51824C42.4795 7.33189 42.3522 7.17554 42.1798 7.0874C42.0659 7.05785 41.9464 7.05652 41.8318 7.08352L40.0448 7.3562C39.8952 7.36301 39.752 7.4185 39.6371 7.51418C39.4043 7.75827 39.6335 8.15132 39.6264 8.48807C39.6184 8.86675 39.281 9.17412 38.9151 9.27581C38.5417 9.35106 38.1564 9.3463 37.7849 9.26184L35.2862 8.87461C36.0221 8.64031 36.6771 8.2044 37.1765 7.61664C37.5053 7.22818 37.6803 6.50293 37.2051 6.31897C37.0639 6.28033 36.9166 6.26854 36.7711 6.28422C35.639 6.293 34.7481 5.35038 33.6882 4.95338C32.2968 4.46585 30.7487 4.92606 29.8521 6.09381L31.1832 6.15781C31.3084 6.15091 31.4326 6.18394 31.5377 6.25211C31.8295 6.49112 31.4668 6.95022 31.5079 7.32449C31.5613 7.81075 32.2087 7.91457 32.6967 7.96374C33.1848 8.01291 33.8039 8.40834 33.5692 8.83785C31.1162 9.68043 28.62 7.1908 26.0439 7.49727C25.3919 7.57483 24.7762 7.83027 24.1396 7.99088C20.251 8.97203 16.2309 6.35421 12.2584 6.90862C11.3753 7.05875 10.5073 7.28703 9.6648 7.59075C9.12414 7.76778 8.5602 7.95909 8.16736 8.36965C7.77453 8.78022 7.62501 9.48236 7.99717 9.91166C6.97142 9.99589 5.93881 9.89801 4.94735 9.62256C5.49347 9.92529 5.83034 10.5012 5.82579 11.1242C4.2242 11.3847 2.66502 11.8588 1.19019 12.5338C1.46545 12.9903 1.78695 13.4173 2.14964 13.8084L0.12207 15.1074C0.807081 15.2795 1.16125 16.211 0.762891 16.7927C1.47317 16.4776 1.91337 15.6625 2.67289 15.4972C3.17048 15.3889 3.67679 15.5919 4.14883 15.7826C4.62087 15.9733 5.13969 16.1582 5.62835 16.0151C6.11701 15.872 6.47745 15.2401 6.16693 14.8375C8.2556 14.2298 10.4142 13.8935 12.5892 13.8369C12.757 13.8159 12.9272 13.8481 13.0756 13.929C13.3587 14.1248 13.2842 14.5479 13.269 14.8913C13.2537 15.2346 13.5221 15.6858 13.8297 15.531C13.4677 15.8441 13.7772 16.4334 14.1245 16.7625C14.4718 17.0917 14.8904 17.5459 14.6778 17.9741C14.6223 18.0858 14.5281 18.1753 14.4748 18.288C14.3171 18.6209 14.5674 19.0089 14.8625 19.23C15.1577 19.451 15.5192 19.6055 15.7243 19.9116C15.9293 20.2177 15.8362 20.7535 15.4696 20.7962L14.4275 19.4768C14.0714 19.845 13.8274 20.3062 13.7235 20.8071C14.8286 21.708 14.9948 23.5415 14.0697 24.6254C13.5969 25.1793 12.9246 25.5158 12.3378 25.9479C11.751 26.3799 11.2081 26.9951 11.2096 27.7224C11.2121 28.979 11.1091 30.1465 11.5813 31.3116C12.4521 33.4598 13.4573 35.5513 14.5912 37.5738C14.889 38.1049 15.2738 38.6869 15.8771 38.7784C15.1147 36.9276 14.4285 35.0481 13.8183 33.1398C14.2157 33.1413 14.675 33.1728 14.9079 33.4939C15.1009 33.7598 15.0594 34.1213 15.1194 34.444C15.1956 34.7566 15.3227 35.0546 15.4957 35.3263L19.1361 41.793C19.4379 42.329 19.7841 42.9045 20.3608 43.1216C20.7296 43.2604 21.1562 43.2342 21.4956 43.434C21.7617 43.5907 21.9409 43.8687 22.2121 44.0163C22.979 44.4334 24.0454 43.6333 24.762 44.1314C24.9669 44.2739 25.0973 44.5001 25.2861 44.6632C25.948 45.2348 27.0338 44.8524 27.7979 45.2788C28.2903 45.5536 28.5455 46.1032 28.8082 46.6013C29.4661 47.8489 30.5307 49.0712 31.9407 49.1705C32.3836 49.2017 32.836 49.118 33.269 49.2162C33.7019 49.3145 34.1281 49.6913 34.0586 50.1286C33.9395 50.8784 34.3109 51.6993 34.2112 52.4519C34.0295 53.8227 32.0797 54.4251 31.9122 55.7977C31.8755 56.0982 31.9329 56.4085 31.8611 56.7026C31.7732 57.0632 31.5017 57.3567 31.4052 57.7151C31.2224 58.3942 31.7103 59.0701 32.2463 59.527C32.7823 59.9839 33.4216 60.3779 33.7146 61.0174C34.0244 61.6935 33.8722 62.4817 33.973 63.2181C34.1929 64.8258 35.5853 66.0176 37.0184 66.7861C37.455 67.0203 37.9238 67.2469 38.2064 67.6531C38.5752 68.1833 38.5385 68.8821 38.6616 69.5156C38.9633 71.067 40.2729 72.3452 40.3101 73.9251C40.3365 75.048 39.7106 76.0666 39.3367 77.1261C38.6274 79.1803 38.8506 81.4407 39.948 83.3174C40.2277 83.7884 40.5622 84.2324 40.7601 84.743C41.1132 85.6541 40.9986 86.6899 41.3242 87.6112C41.7546 88.8292 42.9372 89.8353 42.824 91.1217C43.361 92.2337 44.5466 92.78 45.7389 93.111L47.8756 93.7041C48.2847 93.8177 48.7123 93.9322 49.1289 93.8499C49.5455 93.7677 49.9431 93.4227 49.9323 92.9993C48.8845 92.7637 47.803 92.5131 46.9393 91.8763C46.0755 91.2396 45.4838 90.1057 45.8116 89.0856C45.9635 88.6126 46.2868 88.0664 45.9794 87.6755C45.8035 87.4517 45.4816 87.3933 45.2831 87.1891C44.9735 86.8706 45.0799 86.3356 45.3025 85.9516C45.5251 85.5676 45.8468 85.2244 45.9366 84.79C46.0294 84.2922 45.8022 83.7894 45.3669 83.529C45.7631 83.3798 46.1234 83.1492 46.4245 82.8522C46.7026 82.5355 46.8311 82.0472 46.6123 81.6871C47.262 81.7693 48.0291 81.8095 48.4556 81.3139C48.7962 80.9181 48.7728 80.3264 48.6382 79.8224C48.5036 79.3185 48.2762 78.829 48.2691 78.3075C49.7678 78.3783 51.2699 78.3275 52.7604 78.1556C52.5449 77.4317 52.0551 76.82 51.3949 76.4502C52.07 76.3363 52.6849 75.5303 52.8982 74.8816C53.1115 74.2328 53.0571 73.5261 52.9253 72.8561C52.8747 72.6836 52.8677 72.5013 52.9051 72.3255C52.9811 72.0839 53.2191 71.9365 53.4393 71.8104L56.79 69.8913C56.99 69.7914 57.1712 69.658 57.3258 69.4969C57.6769 69.0856 57.6249 68.4649 57.4451 67.9555C57.2654 67.446 56.9774 66.967 56.9082 66.4313C56.7011 64.8294 58.4207 63.6801 59.001 62.1722C59.2287 61.5804 59.2751 60.9372 59.3192 60.3048C59.3665 59.6257 59.3701 58.8369 58.8472 58.3992C58.3459 57.9797 57.5627 58.0733 57.0382 57.683C56.5573 57.3253 56.3914 56.6304 55.8661 56.3414C55.389 56.079 54.7908 56.2459 54.2602 56.1225C53.326 55.9052 52.7381 54.8314 51.7839 54.732C51.2456 54.6759 50.6363 54.9384 50.1951 54.6257C49.8063 54.3502 49.7908 53.7965 49.7168 53.3266C49.4511 51.831 48.2794 50.6588 46.7805 50.3891C46.2254 50.3003 45.6213 50.334 45.1491 50.0298C44.6709 49.7218 44.4517 49.1452 44.0761 48.7186C43.4708 48.0311 42.5175 47.7869 41.6244 47.5775L37.9918 46.7259C37.3469 46.5747 36.5157 46.4946 36.1697 47.0579C36.0672 47.2724 35.9947 47.4998 35.9541 47.7339C35.6881 48.6027 34.8907 49.2013 33.9799 49.2158C33.6754 48.6979 33.1822 48.3173 32.6031 48.1535C32.2348 48.0511 31.8405 48.0397 31.4892 47.8891C31.1025 47.7009 30.8106 47.3622 30.6822 46.9527C30.5537 46.5431 30.6 46.0989 30.8102 45.7245C31.2408 44.9601 31.1044 44.0028 30.4774 43.3881C29.8596 42.8351 28.966 42.7014 28.1377 42.7568C27.9207 42.2847 28.2835 41.7521 28.6744 41.409C29.0653 41.066 29.5399 40.7287 29.6251 40.2164C29.759 39.4106 28.7279 38.7985 27.9451 39.0388C27.1622 39.2791 26.6625 40.0374 26.3322 40.7848C26.1427 41.2137 25.9816 41.6653 25.6827 42.027C25.3838 42.3886 24.9024 42.6475 24.447 42.5315C23.8024 42.3672 23.5535 41.6034 23.4108 40.9554C23.2194 40.0859 23.0269 39.2043 23.067 38.315C23.1071 37.4257 23.4077 36.5126 24.0653 35.9106C25.1368 34.9296 26.7807 35.0257 28.2268 35.1822C27.8852 34.7983 27.9696 34.1514 28.3352 33.79C28.727 33.4429 29.2653 33.311 29.7738 33.4376C30.2096 33.528 30.6021 33.7621 30.8883 34.1021C31.2993 34.6018 31.4161 35.2764 31.7268 35.8435C32.0374 36.4107 32.7358 36.8944 33.3075 36.5901C33.8013 36.3273 33.8797 35.6445 33.7568 35.0999C33.6339 34.5554 33.3729 34.0259 33.4174 33.4695C33.5024 32.4078 34.6059 31.7688 35.5798 31.3315C36.5537 30.8943 37.6688 30.3062 37.8231 29.2524C37.8284 29.046 37.8674 28.8419 37.9386 28.6481C38.0466 28.477 38.1967 28.3362 38.3747 28.2392C41.2169 26.3661 44.1064 24.4701 47.3549 23.4466C47.5239 23.3933 47.5438 23.4525 47.716 23.4108C47.9571 23.2719 47.7974 22.8875 47.5662 22.7327C47.3351 22.5779 47.0262 22.4591 46.9676 22.1877C46.9245 21.9882 47.0424 21.7923 47.073 21.5904C47.1482 21.0946 46.5533 20.6367 46.0914 20.835C45.8304 20.4903 46.3468 20.0899 46.7643 19.9753C48.018 19.6312 49.3049 19.4215 50.6032 19.3499C50.7531 19.3261 50.9066 19.3522 51.0401 19.424C51.2581 19.5746 51.2303 19.9201 51.0757 20.1351C50.9212 20.3501 50.6808 20.4851 50.4882 20.667C50.0593 21.0837 49.8989 21.704 50.0722 22.2756C50.75 22.6194 51.4869 22.9733 52.2376 22.8522C52.9883 22.7311 53.6545 21.8899 53.3017 21.2182C52.9731 20.5926 51.9861 20.4515 51.8164 19.7659C51.6177 18.9632 52.7571 18.2493 52.5005 17.4631C52.388 17.1187 52.0439 16.916 51.7798 16.6674C51.1414 16.0434 50.9532 15.0924 51.306 14.2733C50.4331 14.4265 49.54 14.1478 48.9104 13.5258C48.3374 12.9491 47.8803 12.0394 47.0666 12.0652C46.32 12.0889 45.6768 12.9576 44.9786 12.6926C44.8069 12.6274 44.6258 12.4947 44.4594 12.5724C44.3488 12.644 44.2774 12.7622 44.2657 12.893C44.0882 13.739 44.3934 14.7028 43.9311 15.4338C43.428 16.2292 42.2643 16.3395 41.6544 17.0568C41.3233 17.4462 41.195 17.9709 40.8907 18.3814C40.5864 18.7919 39.9405 19.0529 39.5753 18.6952C39.9449 17.9374 39.7406 17.0254 39.0827 16.4966C38.7437 16.276 38.3782 16.0987 37.9948 15.9689C37.5664 15.7881 37.1589 15.5616 36.7794 15.2934C36.5893 15.179 36.4348 15.0142 36.3332 14.8173C36.2529 14.5707 36.2637 14.3037 36.3637 14.0644C36.7411 12.9853 37.687 12.2035 38.8203 12.0339C39.3066 11.9679 39.8725 11.9912 40.1943 11.6217C40.3646 11.4262 40.4539 11.1306 40.7011 11.0512C40.8592 11.0196 41.0233 11.0397 41.169 11.1087L42.984 11.7458C43.1865 11.8369 43.4094 11.8737 43.6305 11.8524C43.858 11.8218 44.0233 11.6215 44.0096 11.393C43.9516 11.0924 43.4878 10.9482 43.53 10.645C43.5536 10.5468 43.6066 10.458 43.6819 10.3904C45.0081 8.98271 46.8956 8.23942 48.8284 8.36367C49.0575 8.73886 48.6952 9.18316 48.3937 9.50345C48.0923 9.82375 47.85 10.396 48.2146 10.6426C48.364 10.7186 48.5302 10.7559 48.6979 10.7511C49.1447 10.8114 49.579 10.9428 49.9841 11.1402C50.6113 11.4124 51.2265 11.7102 51.8296 12.0336C51.7763 11.637 51.7254 11.2193 51.8762 10.8485C52.0269 10.4777 52.4553 10.1869 52.8294 10.3313C53.19 10.4704 53.375 10.9466 53.7591 10.9902C54.2716 11.0484 54.4738 10.2934 54.2597 9.82544C54.0457 9.35748 53.6219 8.96564 53.5865 8.4525C53.5627 8.10631 53.6948 7.67697 53.4175 7.46734C53.3188 7.40441 53.2068 7.36524 53.0903 7.35294L46.1665 6.08236C45.7553 6.00691 45.1613 6.06473 45.1431 6.48124C45.1329 6.71372 45.3411 6.94372 45.2489 7.15748C45.1505 7.38562 44.8271 7.36476 44.5915 7.44545C44.226 7.57066 44.0426 8.00343 44.0777 8.38721C44.142 8.76855 44.2901 9.13098 44.5114 9.44851C44.0611 9.26069 43.3792 9.22616 42.9288 9.03834Z" fill="#E4E7EB"/>
<path d="M37.0046 3.04778C36.0832 2.74055 35.0694 3.04645 34.4673 3.8134C34.3498 3.96921 34.2512 4.184 34.3495 4.35272C34.4905 4.5946 34.8497 4.49906 35.1145 4.41254C35.5038 4.27242 35.9274 4.26224 36.3229 4.3835C36.5716 4.46952 36.794 4.62155 37.0438 4.70432C37.2915 4.80873 37.5763 4.76681 37.784 4.59534C37.9554 4.4192 37.9662 4.14537 37.9665 3.89868C37.9905 3.73152 37.9385 3.56233 37.8248 3.4382C37.7248 3.37986 37.6124 3.34638 37.4971 3.34054C37.2386 3.29235 37.005 3.15481 36.8365 2.95165" fill="#E4E7EB"/>
<path d="M39.8746 2.93039C39.6494 2.92293 39.4341 2.9874 39.3065 3.10049C39.1789 3.21358 39.1575 3.35895 39.2499 3.48406C39.59 3.54046 39.9452 3.55455 40.2945 3.52548C40.6506 3.49185 40.9386 3.33126 41.0246 3.11836C40.6134 3.16386 40.1891 3.11458 39.8345 2.98012" fill="#E4E7EB"/>
<path d="M48.223 1.24166C47.4232 1.41474 46.6463 1.68337 45.9084 2.04197C46.6226 2.32138 47.0734 3.04305 47.0191 3.81984C46.9879 3.9651 46.9915 4.11587 47.0297 4.25941C47.1147 4.46917 47.361 4.54788 47.5776 4.60172C47.9666 4.72224 48.3729 4.77502 48.7792 4.75784C49.1922 4.73585 49.5663 4.50314 49.7739 4.13914C49.8328 3.96909 49.9019 3.80287 49.9808 3.64143C50.4999 2.83676 52.0419 3.80973 52.5992 3.032C52.7956 2.75803 52.7776 2.34564 53.0335 2.12855C53.1659 2.03396 53.3193 1.97437 53.48 1.95512C54.6007 1.72847 55.7328 1.56436 56.8712 1.46351C57.4106 1.41573 58.1136 1.2186 58.1181 0.667523C56.0865 0.261387 53.9799 0.54984 52.126 1.48804C51.458 1.82858 50.5746 2.54491 49.9311 2.09344C49.6902 1.9244 49.7022 1.46922 49.3706 1.27914C49.0316 1.0848 48.5828 1.16384 48.223 1.24166Z" fill="#E4E7EB"/>
<path d="M54.7947 2.58958L55.7556 2.77433C55.3978 2.75847 55.0504 2.89756 54.8024 3.15607C54.5543 3.41458 54.4295 3.76746 54.4598 4.12457C55.3596 4.42537 56.3407 4.13266 57.2885 4.17264C58.2364 4.21263 59.3393 4.89014 59.1775 5.82555C59.1286 6.10839 58.9653 6.39103 59.0502 6.66521C59.1097 6.85738 59.2791 6.99374 59.3747 7.17073C59.5739 7.53954 59.4147 8.00603 59.1631 8.34129C58.9116 8.67655 58.5735 8.94405 58.3526 9.30034C57.8035 10.1865 58.1155 11.3321 58.4426 12.3221C58.5372 12.6961 58.7119 13.0452 58.9545 13.345C59.4392 13.8607 60.229 13.9055 60.9364 13.9159C61.4512 13.9234 62.041 13.8979 62.3666 13.4988C62.7916 12.9777 62.4944 12.1647 62.7743 11.5531C63.0284 10.9976 63.676 10.7593 64.2626 10.5903C65.3374 10.2807 66.4328 10.0175 67.4489 9.54984C68.7106 8.96911 69.8898 8.06412 71.2767 7.98937C71.6657 7.9684 72.0644 8.01434 72.4392 7.90767C72.814 7.80101 73.17 7.47679 73.1416 7.08794C73.1174 6.75571 72.8365 6.51174 72.617 6.26128C72.3975 6.01082 72.2251 5.62569 72.4268 5.36071L76.0619 4.68132C75.8042 3.97867 75.6035 3.05326 76.1955 2.59589C76.4092 2.43087 76.6952 2.36492 76.8771 2.16542C77.1871 1.82539 77.0312 1.23967 76.6734 0.9505C76.3155 0.661329 75.8316 0.5942 75.3732 0.5561C73.7793 0.423645 72.1763 0.51117 70.5794 0.598762C67.4576 0.769984 64.3359 0.941206 61.2142 1.11243C60.5857 1.1469 59.8602 1.09424 59.2838 1.30877C58.7959 1.49039 58.4489 1.82378 57.8909 1.94091C56.8607 2.15715 55.7269 2.01082 54.7947 2.58958Z" fill="#E4E7EB"/>
<path d="M72.546 10.3457C72.4494 10.3302 72.3507 10.3529 72.2701 10.4091C72.2169 10.4686 72.1852 10.5446 72.1803 10.6248C72.1191 10.9785 72.192 11.3425 72.3844 11.644C72.584 11.9453 72.9292 12.113 73.2859 12.0821C73.7127 12.0269 74.0273 11.6579 74.4197 11.4778C75.0244 11.2004 77.5929 10.7681 75.8162 9.79528C75.2039 9.46001 74.8082 9.75597 74.3257 9.97677C73.7766 10.2615 73.1613 10.389 72.546 10.3457Z" fill="#E4E7EB"/>
<path d="M87.979 2.31763C87.7662 2.4024 87.5882 2.55348 87.4727 2.7473C87.3623 2.95169 87.4356 3.20464 87.6395 3.32239C87.719 3.35049 87.8032 3.36352 87.8877 3.36078L88.753 3.38598C89.1206 3.39669 89.5798 3.47302 89.6786 3.81838C89.7519 4.07483 89.5877 4.40436 89.7858 4.58763C89.8708 4.65181 89.973 4.69067 90.0802 4.69956C90.3652 4.77094 90.6629 4.78031 90.952 4.72699C91.5816 4.56235 91.2508 4.18772 91.4491 3.85414C91.7525 3.34374 91.6999 3.65271 92.2345 3.36018C92.6293 3.14415 93.1395 2.75227 92.81 2.20167C92.2369 1.24418 88.8246 1.9063 87.979 2.31763Z" fill="#E4E7EB"/>
<path d="M105.438 1.81436L104.922 1.88821C103.756 2.05474 102.585 2.2228 101.462 2.59754C101.948 2.80325 102.458 2.93719 102.977 2.99567C103.263 3.01069 103.547 3.05394 103.826 3.12487C104.322 3.2829 104.821 3.691 105.3 3.48195C105.597 3.35233 105.694 3.02122 105.94 2.84574C106.11 2.72457 106.754 2.52845 106.826 2.40615C107.408 1.41744 105.886 1.75041 105.438 1.81436Z" fill="#E4E7EB"/>
<path d="M107.39 4.01755C106.732 4.40189 106.122 4.86892 105.573 5.40822C105.342 5.6355 105.106 5.91817 105.127 6.24927C105.155 6.68933 105.603 6.94459 105.992 7.11654L107.565 7.81301C107.756 7.53174 107.581 7.14347 107.384 6.86706C107.187 6.59065 106.952 6.27086 107.039 5.93824C107.139 5.55866 107.582 5.42931 107.953 5.36392C108.558 5.25738 110.189 5.26592 109.993 4.24687C109.762 3.04611 107.997 3.66276 107.39 4.01755Z" fill="#E4E7EB"/>
<path d="M107.069 70.0431C106.912 70.4837 106.897 71.0028 107.168 71.3875C107.473 71.8192 108.081 71.9801 108.607 71.8706C109.132 71.7351 109.599 71.4432 109.944 71.036C110.259 70.6949 110.518 70.3087 110.712 69.891C110.983 69.2401 111.174 68.5604 111.282 67.866L111.792 65.2598C111.907 64.6773 111.902 62.8916 110.8 63.4734C110.499 63.6323 109.802 64.8873 109.487 65.2431C108.918 65.8845 108.843 66.5069 108.544 67.2839C108.169 68.2571 107.416 69.0683 107.069 70.0431Z" fill="#E4E7EB"/>
<path d="M163.992 83.4167C163.654 83.2683 163.325 83.0925 163.009 82.8909C162.692 83.8697 162.524 84.9013 162.511 85.9428L164.827 84.4699C165.175 84.2484 165.57 83.9405 165.563 83.4907C165.569 83.3775 165.52 83.2695 165.435 83.209C165.383 83.1858 165.327 83.1784 165.272 83.1876C164.929 83.2197 164.616 83.4097 164.292 83.5417C163.968 83.6738 163.589 83.7436 163.292 83.5476" fill="#E4E7EB"/>
<path d="M176.611 84.3215C176.359 84.3915 176.113 84.4818 175.874 84.5914C175.347 84.8653 174.988 85.3856 174.514 85.7464C174.06 86.0916 173.513 86.2811 172.977 86.4654C172.819 86.6079 172.891 86.8948 173.063 87.0199C173.247 87.1269 173.458 87.1754 173.669 87.1592C174.227 87.1717 174.814 87.1772 175.303 86.9023C175.578 86.7201 175.835 86.5115 176.071 86.2793C176.642 85.793 177.328 85.4721 178.007 85.162C178.254 85.0668 178.482 84.9274 178.681 84.7503C179.108 84.3213 179.138 83.6596 178.523 83.5136C178.026 83.3956 177.084 84.1652 176.611 84.3215Z" fill="#E4E7EB"/>
<path d="M182.37 80.9214C182.429 80.29 182.2 79.6659 181.748 79.2285C181.741 79.852 181.722 80.5163 181.377 81.0318C181.132 81.3992 180.746 81.6474 180.477 81.9973C180.207 82.3472 180.088 82.9019 180.404 83.2089C180.606 83.3651 180.852 83.4512 181.105 83.4545C181.734 83.5298 182.462 83.5717 182.903 83.1099C183.144 82.8579 183.261 82.4846 183.555 82.2993C183.664 82.2526 183.762 82.1816 183.84 82.0914C183.962 81.8955 183.769 81.6374 183.552 81.5668C183.335 81.4962 183.096 81.5294 182.879 81.4624C182.661 81.3953 182.461 81.1463 182.573 80.9447" fill="#E4E7EB"/>
<path d="M172.136 58.6875C171.814 58.7649 171.481 58.7844 171.152 58.7449C170.605 58.6455 170.18 58.2381 169.739 57.904C168.69 57.114 167.415 56.6733 166.097 56.6453C164.898 56.6229 163.688 56.9443 162.511 56.72C162.588 57.1433 162.954 57.4608 163.345 57.6495C163.735 57.8382 164.166 57.9331 164.559 58.118C165.188 58.417 165.686 58.9301 165.963 59.5633C166.09 59.8553 166.169 60.1729 166.361 60.4278C166.752 60.9488 167.494 61.0633 168.149 61.0206C169.003 60.9651 169.894 60.7222 170.688 61.0368C171.296 61.2775 171.731 61.8036 172.238 62.2126C172.745 62.6217 173.46 62.9253 174.042 62.6301C172.801 62.2324 171.964 61.082 171.979 59.7908C172.55 59.8428 174.195 59.8226 174.107 58.8623C174.032 58.0484 172.627 58.5996 172.136 58.6875Z" fill="#E4E7EB"/>
<path d="M164.519 64.9941C164.621 64.4296 165.183 63.9312 165.008 63.3848C164.887 63.007 164.45 62.8204 164.054 62.8111C163.659 62.8018 163.27 62.92 162.874 62.9311C162.617 62.9174 162.358 62.9211 162.101 62.9421C161.316 63.0715 160.832 63.8968 160.091 64.1903C159.641 64.3687 159.136 64.3346 158.667 64.458C157.605 64.738 156.932 65.7445 156.19 66.5561C154.989 67.8615 153.426 68.7756 151.701 69.1799C151.097 69.3202 150.448 69.4099 149.967 69.8032C149.331 70.3241 149.175 71.2171 149.033 72.0281C148.642 74.2677 148.045 76.4661 147.249 78.5951L149.772 78.918C150.252 78.9794 150.749 79.0395 151.211 78.897C151.547 78.77 151.865 78.6002 152.158 78.3916C153.281 77.6922 154.539 77.2371 155.849 77.0558C156.51 76.9649 157.203 76.9482 157.823 77.1944C158.443 77.4406 158.975 77.9989 159.027 78.6655C159.573 78.4951 160.169 78.6403 160.576 79.0432C160.971 79.4467 161.23 79.9645 161.316 80.5233C161.382 80.8694 161.449 81.284 161.769 81.4291C162.031 81.5476 162.33 81.42 162.616 81.3971C163.586 81.3193 164.391 82.4532 165.345 82.2579C166.367 82.0485 166.619 80.5133 167.616 80.2058C168.189 80.0291 168.993 80.2439 169.267 79.7097C169.509 79.2387 169.027 78.6953 169.076 78.168C169.138 77.5188 169.902 77.2432 170.491 76.9662C172.521 76.0111 173.485 73.2715 172.501 71.251C171.918 70.0539 170.771 69.1115 170.559 67.7964C170.396 66.7846 170.794 65.6047 170.15 64.8082C169.823 64.4031 169.268 64.1794 169.074 63.696C168.951 63.3917 169 63.0464 168.934 62.725C168.868 62.4035 168.589 62.0672 168.272 62.1506C167.353 62.3924 167.059 65.239 166.567 65.9306C165.819 66.982 164.283 66.2894 164.519 64.9941Z" fill="#E4E7EB"/>
<path d="M147.942 59.8093C147.628 59.7203 147.286 59.6326 146.986 59.7598C146.686 59.8871 146.511 60.3337 146.751 60.5553C148.636 60.4809 150.533 60.407 152.401 60.6664C154.555 60.9652 156.686 61.7055 158.848 61.4877C157.613 61.1184 156.357 60.8231 155.087 60.6034L152.97 60.1936C152.402 60.073 151.828 59.9832 151.251 59.9244C150.043 59.8233 149.129 60.1468 147.942 59.8093Z" fill="#E4E7EB"/>
<path d="M149.669 52.7495C149.512 52.7368 149.318 52.7259 149.237 52.8567C149.159 52.9817 149.248 53.1468 149.206 53.287C149.149 53.4785 148.891 53.5274 148.687 53.5013C148.483 53.4753 148.263 53.4128 148.083 53.5081C147.895 53.6327 147.814 53.8627 147.885 54.0726C147.958 54.2756 148.078 54.4601 148.234 54.6128C148.501 54.9391 148.805 55.235 149.14 55.4948C149.79 55.9598 150.669 56.1839 151.078 56.8589C151.136 56.9898 151.225 57.1056 151.337 57.1969C151.534 57.3176 151.79 57.2258 152.001 57.1321L152.742 56.8036C152.875 56.757 152.995 56.6783 153.088 56.5751C153.258 56.3522 153.154 56.0354 153.012 55.7953C152.87 55.5553 152.688 55.3068 152.718 55.0316C152.772 54.5409 153.423 54.3531 153.69 53.9333C153.96 53.51 153.784 52.9647 153.815 52.4681C153.852 51.8873 154.228 51.1319 153.623 50.698C153.108 50.3292 152.617 50.6699 152.248 51.0771C151.469 51.9357 151.101 52.8655 149.669 52.7495Z" fill="#E4E7EB"/>
<path d="M154.094 43.7925C154.333 44.2921 154.832 44.5902 155.093 45.0767C155.376 45.6041 155.344 46.2854 155.651 46.7966C155.966 47.321 156.6 47.5994 156.777 48.1959C156.97 48.8471 156.532 49.6386 156.881 50.2076C157.012 50.3957 157.21 50.515 157.426 50.5367C157.642 50.5583 157.857 50.4802 158.018 50.3214C158.324 49.9586 158.308 49.3962 157.983 49.0537C157.777 48.8485 157.48 48.7598 157.308 48.5202C157.218 48.3818 157.158 48.2231 157.133 48.0559C157.039 47.5737 157.054 47.0739 157.177 46.5994C157.223 46.479 157.235 46.3462 157.21 46.2184C157.133 45.9725 156.827 45.9551 156.613 45.841C156.126 45.5819 156.137 44.8329 156.222 44.2496C156.166 44.638 154.896 43.9775 154.763 43.7575C154.499 43.3205 154.643 42.4776 154.591 41.9948C154.021 42.2941 153.801 43.1816 154.094 43.7925Z" fill="#E4E7EB"/>
<path d="M140.569 51.5863C140.314 51.3175 139.93 51.0362 139.588 51.1984C139.327 51.3221 139.255 51.6619 139.357 51.9196C139.482 52.1698 139.674 52.3851 139.914 52.5441C140.627 53.0975 141.394 53.5969 142.016 54.2402C143.129 55.3913 143.718 56.9446 144.929 58.0051C145.172 58.251 145.494 58.4151 145.846 58.4723C146.198 58.5032 146.594 58.2908 146.635 57.9596C146.668 57.6868 146.466 57.4427 146.269 57.2405C145.798 56.7592 145.284 56.3161 144.84 55.8132C144.635 55.62 144.506 55.3667 144.475 55.0952C144.473 54.8244 144.735 54.541 145.014 54.608C144.675 54.5265 144.423 53.9948 143.926 53.8949C143.51 53.8114 143.409 54.0537 142.914 53.8539C141.971 53.4729 141.23 52.2828 140.569 51.5863Z" fill="#E4E7EB"/>
<path d="M162.03 24.6221C161.759 24.5425 161.492 24.4485 161.23 24.3404C160.528 24.1323 159.598 24.6418 159.691 25.3595C159.754 25.8364 160.204 26.1579 160.452 26.5716C160.821 27.185 160.723 27.9631 160.529 28.6501C160.481 28.8628 160.391 29.0639 160.263 29.2414C160.084 29.4289 159.87 29.5806 159.633 29.6882C158.684 30.2131 157.847 30.9144 157.169 31.7533C157.095 31.8307 157.043 31.9263 157.02 32.03C156.986 32.2723 157.233 32.4488 157.373 32.651C157.683 33.0999 157.459 33.7041 157.489 34.2466C157.48 34.4025 157.553 34.5522 157.682 34.6424C157.869 34.736 158.091 34.5769 158.192 34.3959C158.528 33.795 158.275 32.8305 158.906 32.5408C159.025 32.486 159.17 32.4629 159.249 32.3595C159.376 32.1955 159.254 31.9526 159.318 31.7566C159.414 31.4622 159.822 31.449 160.135 31.4621C160.675 31.4843 161.214 31.4135 161.729 31.2528C161.931 31.2054 162.115 31.1007 162.257 30.9515C162.446 30.7193 162.429 30.3893 162.391 30.0942C162.202 28.6229 161.73 27.2009 160.999 25.9048C161.553 25.9747 162.156 26.0351 162.634 25.7503C162.902 25.5908 163.223 25.1138 163.09 24.7892C162.88 24.2758 162.501 24.7079 162.03 24.6221Z" fill="#E4E7EB"/>
<path d="M93.6097 32.3227C93.6739 32.6655 93.7371 33.0263 93.6241 33.3564C93.5112 33.6864 93.156 33.9622 92.8205 33.8611C92.5602 33.7826 92.4098 33.5222 92.225 33.3237C91.197 32.2199 88.8776 32.859 88.2426 31.4933C87.9834 30.936 88.1595 30.2682 87.9827 29.6799C87.7534 28.9805 87.0775 28.5238 86.3393 28.5694C86.0119 28.6164 85.6933 28.711 85.3936 28.8502C83.3857 29.65 81.2778 30.1744 79.1277 30.409C78.7192 30.4337 78.315 30.5069 77.9238 30.6268C77.041 30.9452 76.4378 31.7592 76.0085 32.5899C75.5792 33.4206 75.2623 34.32 74.6868 35.058C74.082 35.8336 73.2344 36.3768 72.4437 36.9642C72.1392 37.1595 71.8856 37.4239 71.7038 37.7356C71.5324 38.0856 71.5421 38.4927 71.5554 38.8818L71.7169 43.6075C71.7377 44.2154 71.7638 44.8449 72.0373 45.3889C72.3789 46.0681 73.0536 46.513 73.5217 47.1131C73.9994 47.7297 74.2482 48.4916 74.2261 49.2697C74.2161 49.5826 74.1849 49.9526 74.4298 50.1491C74.5788 50.2452 74.7532 50.295 74.9308 50.2924L81.3577 50.8156C82.4883 50.9076 83.7412 51.0589 84.4793 51.9156C84.8277 52.3199 85.1075 52.9014 85.6411 52.9448C85.87 52.9634 86.0927 52.8699 86.3216 52.8519C86.8991 52.8064 87.4065 53.2424 87.7267 53.7226C88.2113 54.4546 88.4313 55.3287 88.3505 56.2014C88.298 56.7492 88.1272 57.2818 88.0904 57.8309C87.9503 59.9202 89.731 61.7353 89.7655 63.829C89.7858 65.0604 89.1981 66.2111 88.625 67.3029C89.5499 68.6965 88.7926 70.5522 89.1608 72.1813C89.5101 73.7269 90.8058 74.9369 91.1286 76.4882C91.2764 77.1984 91.285 78.0723 91.9146 78.4381C92.1908 78.572 92.4971 78.633 92.8039 78.6152C94.6546 78.637 96.4842 78.2227 98.143 77.4062C98.9215 77.022 99.7284 76.4483 99.8643 75.5945C99.974 74.906 99.6229 74.1358 99.9802 73.536C100.401 72.8292 101.48 72.8852 102.099 72.3417C103.105 71.46 102.321 69.7786 102.728 68.5086C103.094 67.3672 104.354 66.7607 104.979 65.7362C105.225 65.2956 105.401 64.8201 105.502 64.3263C105.788 63.1461 105.966 61.9425 106.034 60.7303C106.051 59.9939 106.105 59.2587 106.197 58.5278C106.871 54.3665 111.007 51.58 112.35 47.5823C112.478 47.2006 112.538 46.692 112.197 46.476C111.994 46.3799 111.765 46.356 111.547 46.4083L108.584 46.7798C108.216 46.826 107.826 46.8691 107.488 46.7171C107.15 46.5651 106.908 46.1398 107.087 45.8169C107.59 44.9103 106.555 43.7647 106.095 42.8356C104.857 40.3339 103.382 37.955 101.691 35.731C101.583 35.6166 101.515 35.4702 101.498 35.314L102.339 35.3418C102.055 34.3288 101.586 33.2203 100.597 32.8497C100.039 32.6409 99.4218 32.7131 98.8269 32.7454C97.1229 32.838 95.2961 32.5821 93.6097 32.3227Z" fill="#E4E7EB"/>
<path d="M98.2768 9.82811C98.7232 10.3016 99.2234 10.8036 99.8692 10.8861C101.01 11.0319 101.83 9.85362 102.352 8.83015C102.392 9.37269 102.858 9.7847 103.402 9.75955C103.683 9.71222 103.952 9.60727 104.191 9.45128C106.451 8.21754 108.983 7.56385 111.558 7.54893C111.507 7.14529 111.769 6.76819 112.166 6.67526C112.689 6.57156 113.161 7.02379 113.414 7.49357C113.666 7.96334 113.824 8.50785 114.225 8.85948C114.626 9.21111 115.403 9.19579 115.562 8.68659C115.714 8.19774 115.204 7.78085 114.781 7.49263C114.357 7.20442 113.911 6.67099 114.196 6.24566C116.36 5.76717 118.537 5.28687 120.752 5.19176C121.129 5.20487 121.504 5.14023 121.855 5.00187C122.193 4.83634 122.461 4.46059 122.371 4.09596C121.382 4.32805 120.351 3.9397 119.763 3.1134C122.835 2.86013 126.103 2.64426 128.826 4.08842C129.153 4.78911 127.488 5.37208 127.933 6.00407C128.075 6.20564 128.36 6.22927 128.607 6.23385C130.499 6.26894 132.402 6.30335 134.273 6.01799C134.957 5.91371 135.647 5.76649 136.334 5.85106C137.477 5.9919 138.455 6.75392 139.58 7.00236C140.038 7.10348 140.551 7.10691 140.937 6.84093C141.323 6.57494 141.489 5.9693 141.172 5.62353C142.231 4.58671 143.989 4.84368 145.386 5.34006C146.783 5.83643 148.107 6.63692 149.586 6.74756C150.646 6.82691 151.721 6.54199 152.769 6.72309C153.427 6.83689 154.04 7.12949 154.684 7.30925C155.901 7.64925 157.188 7.57747 158.452 7.59384C161.676 7.63723 164.866 8.27023 167.862 9.4615C168.251 9.58825 168.608 9.799 168.908 10.0788C169.186 10.377 169.329 10.8404 169.141 11.203L166.045 10.7511C166.337 11.3247 167.092 11.4224 167.705 11.6203C168.317 11.8182 168.953 12.4942 168.584 13.022C167.92 12.8108 167.319 13.4739 166.983 14.0841C166.648 14.6942 166.239 15.4249 165.543 15.4621C164.92 15.4954 164.167 14.9654 163.76 15.4386C164.322 16.1457 164.802 16.913 165.193 17.7265C165.594 18.5615 165.88 19.6137 165.338 20.365C165.252 20.4991 165.123 20.5994 164.972 20.6485C164.529 20.7605 164.241 20.2193 163.923 19.8912C163.523 19.4778 162.918 19.3607 162.376 19.1668C161.834 18.9729 161.263 18.5915 161.22 18.018C161.194 17.6611 161.382 17.3294 161.521 16.9995C161.755 16.4436 161.857 15.8414 161.82 15.2396C161.789 14.7555 161.653 14.252 161.305 13.9137C160.957 13.5755 160.356 13.4682 159.983 13.778C159.808 13.9225 159.669 14.1537 159.442 14.1624C159.042 14.1777 158.735 13.481 158.413 13.7188C158.451 13.9722 158.398 14.2308 158.265 14.4494C157.304 15.2838 155.829 14.9308 154.59 15.2255C154.002 15.3938 153.438 15.6398 152.914 15.9568C152.718 16.0405 152.552 16.1802 152.435 16.3585C152.281 16.6585 152.451 17.0428 152.723 17.2423C153.012 17.4193 153.337 17.5299 153.674 17.5663C155.183 17.8519 156.715 18.294 157.907 19.2625C159.098 20.231 159.88 21.832 159.503 23.3197L156.526 20.4784C156.639 21.6714 156.703 22.8677 156.719 24.0672C156.738 24.3014 156.706 24.537 156.624 24.7575C156.412 25.2257 155.837 25.3833 155.333 25.4867C155.049 25.5405 154.802 25.7127 154.654 25.96C154.505 26.2073 154.47 26.5061 154.556 26.7813C154.735 27.3643 155.182 27.8189 155.591 28.2719C155.999 28.7248 156.402 29.2396 156.455 29.8471C156.509 30.4547 156.05 31.1394 155.441 31.0972C154.979 31.0652 154.637 30.6523 154.44 30.2339C154.243 29.8155 154.126 29.3494 153.83 28.9939C152.934 27.9179 150.922 28.3789 150.12 27.2318C149.704 27.703 149.562 28.3557 149.745 28.9568C150.118 28.7233 150.629 28.9402 150.909 29.2794C151.19 29.6185 151.322 30.0534 151.542 30.4343C151.84 30.9483 152.313 31.404 152.354 31.9962C152.343 32.2201 152.347 32.4445 152.365 32.6679C152.439 33.0267 152.743 33.2843 152.953 33.5842C153.443 34.282 153.419 35.2406 153.103 36.0324C152.787 36.8241 152.22 37.4857 151.658 38.1271C150.677 39.2475 149.676 40.3612 148.513 41.2916C148.181 41.5571 147.827 41.8181 147.62 42.1893C147.413 42.5605 147.402 43.0814 147.72 43.3638C147.493 43.3751 147.085 43.4868 146.858 43.4982C146.778 42.5873 146.761 41.6721 146.806 40.7589C145.909 40.3287 144.943 41.4809 145.059 42.4681C145.175 43.4553 145.889 44.2475 146.398 45.1016C146.771 45.7262 147.047 46.4545 146.923 47.1707C146.799 47.8869 146.159 48.5475 145.434 48.4844C144.281 48.3839 143.798 46.7304 142.657 46.5412C142.556 46.5176 142.45 46.5281 142.356 46.571C142.187 46.6639 142.157 46.8905 142.148 47.0833C142.101 48.0301 142.06 49.0144 142.43 49.8873C142.972 51.1643 144.37 52.2368 144.077 53.5921C142.496 52.8585 141.675 51.0885 141.302 49.3883C140.929 47.6881 140.867 45.9032 140.198 44.2959C139.69 44.946 138.623 44.4086 138.159 43.7267C137.72 43.0801 137.449 42.3323 137.022 41.677C136.595 41.0218 135.942 40.4351 135.16 40.3991C134.341 40.3613 133.63 40.9231 133.005 41.4539C132.491 41.8904 131.963 42.3441 131.663 42.9474C131.225 43.8255 131.34 44.8605 131.319 45.8409C131.296 46.9009 131.071 48.0191 130.348 48.7951C129.625 49.571 128.29 49.8413 127.492 49.142C127.076 48.7769 126.874 48.2314 126.694 47.7078C125.829 45.1839 125.108 42.6128 124.535 40.0069C124.401 40.6017 123.878 41.3683 123.378 41.0179C123.266 40.9237 123.176 40.8069 123.112 40.6751C122.18 39.0977 120.455 38.1516 118.712 37.5843C116.968 37.017 115.134 36.7524 113.41 36.129C112.444 35.7795 111.522 35.3203 110.66 34.7606C110.213 35.417 110.162 36.2657 110.528 36.9706C110.91 37.647 111.776 38.0383 112.517 37.8019C112.899 37.6797 113.223 37.4143 113.603 37.2832C113.982 37.1521 114.492 37.2165 114.658 37.582C114.817 37.9319 114.577 38.3551 114.696 38.7204C114.878 39.2768 115.718 39.3197 116.012 39.826C116.23 40.2027 116.05 40.703 115.738 41.007C115.426 41.3109 115.01 41.4777 114.629 41.6893C113.393 42.3759 112.514 43.5479 111.433 44.4598C110.353 45.3717 108.829 46.0374 107.542 45.4525C107.849 43.9003 105.998 42.7607 105.657 41.2155C105.545 40.7069 105.603 40.1667 105.443 39.6711C105.211 38.9535 104.574 38.4601 104.051 37.9163C102.77 36.5693 102.088 34.7623 102.16 32.9057C102.188 32.2671 102.306 31.6181 102.16 30.9957C102.014 30.3732 101.499 29.7707 100.859 29.799C99.3991 29.8634 97.5596 29.9719 96.7935 28.7285C96.52 28.2847 96.4011 27.6348 96.7964 27.2948C97.0752 27.055 97.4869 27.0776 97.8531 27.1136L101.143 27.4368C101.913 27.5125 102.744 27.5749 103.405 27.173C104.065 26.7712 104.351 25.7046 103.74 25.2318C103.293 24.8864 102.493 24.9051 102.363 24.3559C102.255 23.8985 102.761 23.3795 102.488 22.9972C102.291 22.7231 101.85 22.7992 101.583 23.0047C101.315 23.2101 101.121 23.5106 100.822 23.6662C100.297 23.9391 99.6697 23.6794 99.1049 23.5028C98.5401 23.3263 97.7829 23.3113 97.5089 23.8353C97.2026 24.4214 97.7807 25.1893 97.4766 25.7765C97.0746 26.5529 95.7132 26.1109 95.1486 26.7788C94.5008 27.5451 95.5895 28.6878 95.371 29.6668C94.8036 29.9475 94.1302 29.9097 93.5978 29.5673C93.0734 29.211 92.7875 28.5956 92.8536 27.9654C92.9076 27.525 93.1375 27.0755 92.9835 26.6593C92.859 26.3228 92.5207 26.1225 92.2064 25.949L89.0093 24.1842C88.7124 24.7343 89.0877 25.4162 89.557 25.8293C90.0263 26.2424 90.6142 26.5536 90.9225 27.0973C91.3273 27.8792 91.0526 28.8408 90.2955 29.2915C90.203 29.3553 90.0873 29.3755 89.9786 29.3467C89.8756 29.2862 89.8014 29.1867 89.7731 29.0707C89.209 27.6287 88.362 26.2069 87.008 25.4537C85.6539 24.7004 83.7083 24.8553 82.8204 26.1242C82.6094 26.4256 82.4679 26.7691 82.2842 27.0878C81.3081 28.7807 79.2155 29.5824 77.2604 29.53C77.0691 29.5406 76.8789 29.4959 76.7123 29.4014C76.3963 29.1834 76.4106 28.7208 76.4589 28.3403L76.6642 26.7254C76.7054 26.4012 76.7651 26.0427 77.022 25.8403C77.3842 25.5549 77.9067 25.735 78.368 25.7284C79.0838 25.6949 79.7024 25.2181 79.9162 24.5348C80.1061 23.8484 79.9001 23.1134 79.381 22.6253C79.1696 22.4269 78.8859 22.1778 78.9975 21.9104C79.0877 21.7607 79.2396 21.6585 79.4124 21.6313C80.2409 21.391 81.1164 21.328 81.9311 21.0444C82.7458 20.7609 83.5359 20.1807 83.7288 19.3407C83.788 19.0833 83.8149 18.7715 84.0464 18.6438C84.1625 18.5949 84.2872 18.5694 84.4133 18.5689C85.3288 18.4388 85.9934 17.632 85.9449 16.7096C86.3354 16.437 86.8824 16.6375 87.2601 16.9274C87.6379 17.2172 87.9713 17.6002 88.431 17.7251C89.2875 17.958 90.1152 17.2005 91.0029 17.1969C91.3762 17.1955 91.7626 17.3273 92.1138 17.2009C92.4698 17.0727 92.6825 16.7187 92.9557 16.4572C93.2289 16.1957 93.7084 16.0361 93.9607 16.3179L93.7458 14.7282C94.6212 14.9491 95.5495 14.7814 96.2921 14.2683L93.5152 13.3311C93.4186 13.307 93.3293 13.2594 93.2556 13.1925C93.0537 12.9753 93.2542 12.6369 93.4184 12.3901C93.8111 11.7996 93.877 10.8269 93.2312 10.5329C92.7904 10.3322 92.2844 10.5731 91.8613 10.8087L89.8346 11.9376C89.7702 12.3224 90.2413 12.5405 90.5332 12.7997C90.8947 13.1207 91.0216 13.6307 90.8524 14.0833C90.6833 14.536 90.253 14.8383 89.7693 14.8442C90.0397 15.1953 90.1356 15.6501 90.03 16.0803L88.6664 16.1782C88.5133 16.209 88.3543 16.178 88.2241 16.092C88.0783 15.9626 88.098 15.7359 88.0642 15.544C87.9826 15.0808 87.5286 14.7562 87.0653 14.673C86.6019 14.5898 86.1279 14.6964 85.669 14.8018C85.4742 14.8718 85.2603 14.8669 85.0689 14.788C84.9591 14.7167 84.8757 14.6116 84.8314 14.4886C84.6303 14.0014 84.8183 13.4287 85.1414 13.0121C85.4644 12.5954 85.9067 12.2909 86.3039 11.944C87.2538 11.1115 87.9517 10.0302 88.3188 8.82236C89.0694 8.50818 89.8466 8.08131 90.5973 7.76713C91.7546 7.18181 93.0525 6.93063 94.3449 7.04182L96.8872 7.09032C97.6398 7.10468 98.4129 7.12308 99.1089 7.40971C99.8048 7.69634 100.416 8.31628 100.464 9.06673C100.494 9.23944 100.432 9.41513 100.301 9.53176C100.203 9.58534 100.092 9.6104 99.98 9.60412C99.2781 9.62876 98.9788 9.80348 98.2768 9.82811Z" fill="#E4E7EB"/>
<path d="M78.4746 17.8119C78.6695 17.6199 78.7449 17.3306 78.6699 17.0624C78.1954 16.8718 77.6581 16.9774 77.283 17.3349C77.138 17.4876 77.0131 17.6595 76.9115 17.8462C76.5899 18.3922 76.3055 19.0444 76.4919 19.6547C76.5226 19.7892 76.604 19.9051 76.7178 19.9763C76.8013 20.0112 76.8913 20.0259 76.9811 20.0193C77.3353 20.0188 77.6892 19.9961 78.0408 19.9514C78.2567 19.9239 78.5075 19.8604 78.591 19.6513C78.7007 19.3765 78.4352 19.0654 78.5126 18.7789C78.5635 18.6508 78.6406 18.5358 78.7387 18.4419C78.8373 18.3461 78.8867 18.2074 78.872 18.0678C78.8408 17.9334 78.643 17.8571 78.5718 17.9739" fill="#E4E7EB"/>
<path d="M80.2719 15.2136C79.9418 15.1407 79.6016 15.1201 79.2646 15.1527C79.1901 15.1506 79.1163 15.1668 79.05 15.1997C78.9858 15.2453 78.9393 15.3102 78.9178 15.3841C78.7702 15.8402 79.0113 16.329 79.4717 16.507C79.5928 16.5337 79.7087 16.5786 79.8153 16.6399C80.1002 16.8527 79.9185 17.2877 79.9725 17.631C80.033 18.0165 80.4205 18.3401 80.3495 18.7239C80.2935 19.0263 79.9581 19.2657 80.0121 19.5684C80.0687 19.8855 80.4865 19.9808 80.8195 20.0062C81.0126 20.0387 81.2112 20.0168 81.3916 19.943C81.5724 19.824 81.7009 19.6447 81.7525 19.4397C81.8888 19.0489 81.9461 18.6366 81.9213 18.225C81.9198 18.0378 81.871 17.8538 81.779 17.6889C81.6787 17.5582 81.5676 17.4356 81.4466 17.3224C80.8085 16.6077 81.4804 15.5416 80.2719 15.2136Z" fill="#E4E7EB"/>
<path opacity="0.8" d="M163.121 72.5143C163.121 72.5143 114.831 44.8094 94.0407 50.0587C94.0407 50.0587 49.9808 54.7977 44.8745 65.2235C44.8745 65.2235 30.8687 21.4789 25.7625 20.0208" stroke="#1665D8" stroke-width="1.22304"/>
<path opacity="0.8" d="M44.8745 65.2638C52.9716 43.8023 125.919 20.0208 125.919 20.0208C115.56 22.6309 94.0407 50.1828 94.0407 50.1828C94.0407 50.1828 48.5219 17.2656 25.7625 20.3108C25.7625 20.3108 125.991 23.5735 163.121 72.5143" stroke="#1665D8" stroke-width="1.22304"/>
<path d="M26.0676 21.852C27.2477 21.852 28.2043 20.8955 28.2043 19.7156C28.2043 18.5357 27.2477 17.5792 26.0676 17.5792C24.8875 17.5792 23.9309 18.5357 23.9309 19.7156C23.9309 20.8955 24.8875 21.852 26.0676 21.852Z" fill="#1665D8"/>
<path d="M44.9927 67.0208C46.1727 67.0208 47.1293 66.0643 47.1293 64.8844C47.1293 63.7045 46.1727 62.748 44.9927 62.748C43.8126 62.748 42.856 63.7045 42.856 64.8844C42.856 66.0643 43.8126 67.0208 44.9927 67.0208Z" fill="#1665D8"/>
<path d="M126.187 21.852C127.367 21.852 128.324 20.8955 128.324 19.7156C128.324 18.5357 127.367 17.5792 126.187 17.5792C125.007 17.5792 124.05 18.5357 124.05 19.7156C124.05 20.8955 125.007 21.852 126.187 21.852Z" fill="#1665D8"/>
<path d="M163.426 74.3455C164.607 74.3455 165.563 73.389 165.563 72.2091C165.563 71.0292 164.607 70.0728 163.426 70.0728C162.246 70.0728 161.29 71.0292 161.29 72.2091C161.29 73.389 162.246 74.3455 163.426 74.3455Z" fill="#1665D8"/>
<path d="M93.8313 52.3715C95.0113 52.3715 95.968 51.415 95.968 50.2351C95.968 49.0552 95.0113 48.0988 93.8313 48.0988C92.6512 48.0988 91.6946 49.0552 91.6946 50.2351C91.6946 51.415 92.6512 52.3715 93.8313 52.3715Z" fill="#1665D8"/>
</svg>
